<?xml version="1.0"?>
<!DOCTYPE svg PUBLIC "-//W3C//DTD SVG 1.1//EN"
"http://www.w3.org/Graphics/SVG/1.1/DTD/svg11.dtd">
<svg version="1.1" xmlns="http://www.w3.org/2000/svg"
xmlns:xlink="http://www.w3.org/1999/xlink"
width="900" height="900"
preserveAspectRatio="xMidYMid" >
    
  <g transform="translate(110,10)">
      
  <g transform="translate(-135,110)">
      
  <path d="M 365,150 
           L 358.5505,169.282
           L 346.418,184.102
           L 330.598,193.276
           L 312.5,196.15
           L 294.402,193.276
           L 278.582,184.102
           L 266.4495,169.282
           L 260,150
           L 266.4495,130.718
           L 278.582,115.898
           L 294.402,106.724
           L 312.5,103.85
           L 330.598,106.724
           L 346.418,115.898
           L 358.5505,130.718
           Z
           M 315,150 
           L 358.5505,169.282
           M 315,150
           L 346.418,184.102
           M 315,150
           L 330.598,193.276
           M 315,150
           L 312.5,196.15
           M 315,150
           L 294.402,193.276
           M 315,150
           L 278.582,184.102
           M 315,150
           L 266.4495,169.282
           M 315,150
           L 260,150
           M 315,150
           L 266.4495,130.718
           M 315,150
           L 278.582,115.898
           M 315,150
           L 294.402,106.724
           M 315,150
           L 312.5,103.85
           M 315,150
           L 330.598,106.724
           M 315,150
           L 346.418,115.898
           M 315,150
           L 358.5505,130.718
           M 315,150
           L 365,150 
           Z
           "
        style="fill:none;stroke:black;stroke-width:1">
      
    <animateTransform attributeName="transform" attributeType="XML"
    type="rotate" from="0 315 150" to="360 315 150"
    dur="10s" repeatCount="indefinite"/>
    
    </path>
    </g>
      
    <g transform="translate(35,190)">
  <path d="M 365,150 
           L 358.5505,169.282
           L 346.418,184.102
           L 330.598,193.276
           L 312.5,196.15
           L 294.402,193.276
           L 278.582,184.102
           L 266.4495,169.282
           L 260,150
           L 266.4495,130.718
           L 278.582,115.898
           L 294.402,106.724
           L 312.5,103.85
           L 330.598,106.724
           L 346.418,115.898
           L 358.5505,130.718
           Z
           M 315,150 
           L 358.5505,169.282
           M 315,150
           L 346.418,184.102
           M 315,150
           L 330.598,193.276
           M 315,150
           L 312.5,196.15
           M 315,150
           L 294.402,193.276
           M 315,150
           L 278.582,184.102
           M 315,150
           L 266.4495,169.282
           M 315,150
           L 260,150
           M 315,150
           L 266.4495,130.718
           M 315,150
           L 278.582,115.898
           M 315,150
           L 294.402,106.724
           M 315,150
           L 312.5,103.85
           M 315,150
           L 330.598,106.724
           M 315,150
           L 346.418,115.898
           M 315,150
           L 358.5505,130.718
           M 315,150
           L 365,150 
           Z
           "
        style="fill:none;stroke:black;stroke-width:1">
      
    <animateTransform attributeName="transform" attributeType="XML"
    type="rotate" from="0 315 150" to="360 315 150"
    dur="10s" repeatCount="indefinite"/>
    
    </path>
    </g>
   
    
    <rect x = "265" y = "150" height = "15" width = "200" fill="red" transform="rotate(25)" />
    
    <polygon points="225,480 300,480 265,300"
    fill="blue" stroke="green" stroke-width="0.2"/>
      
    </g>
    
  <g transform="translate(-80,-150) scale(0.8)">
      
  <g transform="translate(-135,110)">
  <path d="M 365,150 
           L 358.5505,169.282
           L 346.418,184.102
           L 330.598,193.276
           L 312.5,196.15
           L 294.402,193.276
           L 278.582,184.102
           L 266.4495,169.282
           L 260,150
           L 266.4495,130.718
           L 278.582,115.898
           L 294.402,106.724
           L 312.5,103.85
           L 330.598,106.724
           L 346.418,115.898
           L 358.5505,130.718
           Z
           M 315,150 
           L 358.5505,169.282
           M 315,150
           L 346.418,184.102
           M 315,150
           L 330.598,193.276
           M 315,150
           L 312.5,196.15
           M 315,150
           L 294.402,193.276
           M 315,150
           L 278.582,184.102
           M 315,150
           L 266.4495,169.282
           M 315,150
           L 260,150
           M 315,150
           L 266.4495,130.718
           M 315,150
           L 278.582,115.898
           M 315,150
           L 294.402,106.724
           M 315,150
           L 312.5,103.85
           M 315,150
           L 330.598,106.724
           M 315,150
           L 346.418,115.898
           M 315,150
           L 358.5505,130.718
           M 315,150
           L 365,150 
           Z
           "
        style="fill:none;stroke:black;stroke-width:1">
      
    <animateTransform attributeName="transform" attributeType="XML"
    type="rotate" from="0 315 150" to="360 315 150"
    dur="10s" repeatCount="indefinite"/>
    
    </path>
    </g>
    <g transform="translate(35,190)">
  <path d="M 365,150 
           L 358.5505,169.282
           L 346.418,184.102
           L 330.598,193.276
           L 312.5,196.15
           L 294.402,193.276
           L 278.582,184.102
           L 266.4495,169.282
           L 260,150
           L 266.4495,130.718
           L 278.582,115.898
           L 294.402,106.724
           L 312.5,103.85
           L 330.598,106.724
           L 346.418,115.898
           L 358.5505,130.718
           Z
           M 315,150 
           L 358.5505,169.282
           M 315,150
           L 346.418,184.102
           M 315,150
           L 330.598,193.276
           M 315,150
           L 312.5,196.15
           M 315,150
           L 294.402,193.276
           M 315,150
           L 278.582,184.102
           M 315,150
           L 266.4495,169.282
           M 315,150
           L 260,150
           M 315,150
           L 266.4495,130.718
           M 315,150
           L 278.582,115.898
           M 315,150
           L 294.402,106.724
           M 315,150
           L 312.5,103.85
           M 315,150
           L 330.598,106.724
           M 315,150
           L 346.418,115.898
           M 315,150
           L 358.5505,130.718
           M 315,150
           L 365,150 
           Z
           "
        style="fill:none;stroke:black;stroke-width:1">
      
    <animateTransform attributeName="transform" attributeType="XML"
    type="rotate" from="0 315 150" to="360 315 150"
    dur="10s" repeatCount="indefinite"/>
    
    </path>
    </g>
   
    
    <rect x = "265" y = "150" height = "15" width = "200" fill="red" transform="rotate(25)" />
    
    <polygon points="225,480 300,480 265,300"
    fill="blueviolet" stroke="green" stroke-width="0.2"/>
   </g>
    
    <g transform="translate(370,-50) scale(0.6)">
  <g transform="translate(-135,110)">
  <path d="M 365,150 
           L 358.5505,169.282
           L 346.418,184.102
           L 330.598,193.276
           L 312.5,196.15
           L 294.402,193.276
           L 278.582,184.102
           L 266.4495,169.282
           L 260,150
           L 266.4495,130.718
           L 278.582,115.898
           L 294.402,106.724
           L 312.5,103.85
           L 330.598,106.724
           L 346.418,115.898
           L 358.5505,130.718
           Z
           M 315,150 
           L 358.5505,169.282
           M 315,150
           L 346.418,184.102
           M 315,150
           L 330.598,193.276
           M 315,150
           L 312.5,196.15
           M 315,150
           L 294.402,193.276
           M 315,150
           L 278.582,184.102
           M 315,150
           L 266.4495,169.282
           M 315,150
           L 260,150
           M 315,150
           L 266.4495,130.718
           M 315,150
           L 278.582,115.898
           M 315,150
           L 294.402,106.724
           M 315,150
           L 312.5,103.85
           M 315,150
           L 330.598,106.724
           M 315,150
           L 346.418,115.898
           M 315,150
           L 358.5505,130.718
           M 315,150
           L 365,150 
           Z
           "
        style="fill:none;stroke:black;stroke-width:1">
      
    <animateTransform attributeName="transform" attributeType="XML"
    type="rotate" from="0 315 150" to="360 315 150"
    dur="10s" repeatCount="indefinite"/>
    
    </path>
    </g>
    <g transform="translate(35,190)">
  <path d="M 365,150 
           L 358.5505,169.282
           L 346.418,184.102
           L 330.598,193.276
           L 312.5,196.15
           L 294.402,193.276
           L 278.582,184.102
           L 266.4495,169.282
           L 260,150
           L 266.4495,130.718
           L 278.582,115.898
           L 294.402,106.724
           L 312.5,103.85
           L 330.598,106.724
           L 346.418,115.898
           L 358.5505,130.718
           Z
           M 315,150 
           L 358.5505,169.282
           M 315,150
           L 346.418,184.102
           M 315,150
           L 330.598,193.276
           M 315,150
           L 312.5,196.15
           M 315,150
           L 294.402,193.276
           M 315,150
           L 278.582,184.102
           M 315,150
           L 266.4495,169.282
           M 315,150
           L 260,150
           M 315,150
           L 266.4495,130.718
           M 315,150
           L 278.582,115.898
           M 315,150
           L 294.402,106.724
           M 315,150
           L 312.5,103.85
           M 315,150
           L 330.598,106.724
           M 315,150
           L 346.418,115.898
           M 315,150
           L 358.5505,130.718
           M 315,150
           L 365,150 
           Z
           "
        style="fill:none;stroke:black;stroke-width:1">
      
    <animateTransform attributeName="transform" attributeType="XML"
    type="rotate" from="0 315 150" to="360 315 150"
    dur="10s" repeatCount="indefinite"/>
    
    </path>
    </g>
   
    
    <rect x = "265" y = "150" height = "15" width = "200" fill="red" transform="rotate(25)" />
    
    <polygon points="225,480 300,480 265,300"
    fill="green" stroke="green" stroke-width="0.2"/>
   </g>
    
    
</svg>